<svg xmlns="http://www.w3.org/2000/svg" width="1500" height="760" viewBox="0 0 1500 760" role="img" aria-labelledby="title desc">
  <title id="title">Genesis System Architecture</title>
  <desc id="desc">High-level Genesis diagram. Editable Excalidraw source is stored beside this SVG.</desc>
  <defs>
    <marker id="arrow" viewBox="0 0 10 10" refX="9" refY="5" markerWidth="7" markerHeight="7" orient="auto-start-reverse"><path d="M0 0 L10 5 L0 10z" fill="context-stroke"/></marker>
    <filter id="rough" x="-5%" y="-7%" width="110%" height="114%"><feTurbulence type="fractalNoise" baseFrequency="0.025 0.12" numOctaves="2" seed="41" result="noise"/><feDisplacementMap in="SourceGraphic" in2="noise" scale="1.7"/></filter>
    <filter id="rough-line" x="-8%" y="-12%" width="116%" height="124%"><feTurbulence type="fractalNoise" baseFrequency="0.04 0.18" numOctaves="2" seed="17" result="noise"/><feDisplacementMap in="SourceGraphic" in2="noise" scale="2"/></filter>
    <style>.heading{font:700 30px "Marker Felt","Comic Sans MS",cursive;fill:#1e1e1e}.node-title{font:700 17px "Marker Felt","Comic Sans MS",cursive;fill:#1e1e1e}.node-body{font:14px "Marker Felt","Comic Sans MS",cursive;fill:#495057}.edge-label{font:700 13px "Marker Felt","Comic Sans MS",cursive}</style>
  </defs>
  <rect width="100%" height="100%" fill="#ffffff"/>
  <text x="40" y="51" class="heading">Genesis System Architecture</text>
  <path d="M35 70 Q 750 66 1465 70" stroke="#1e1e1e" stroke-width="1" opacity=".22" fill="none" filter="url(#rough-line)"/>
  <g><path d="M 260 175 Q 283 171 300 175" fill="none" stroke="#1e1e1e" stroke-width="2.2" marker-end="url(#arrow)" filter="url(#rough-line)"/><rect x="222" y="159" width="116" height="23" rx="3" fill="#ffffff"/><text x="280" y="176" text-anchor="middle" class="edge-label" fill="#495057">HTTPS</text></g>
<g><path d="M 520 175 Q 543 168.5 560 170" fill="none" stroke="#1e1e1e" stroke-width="2.2" marker-end="url(#arrow)" filter="url(#rough-line)"/><rect x="482" y="156.5" width="116" height="23" rx="3" fill="#ffffff"/><text x="540" y="173.5" text-anchor="middle" class="edge-label" fill="#495057">rewrite</text></g>
<g><path d="M 790 170 Q 813 166 830 170" fill="none" stroke="#1e1e1e" stroke-width="2.2" marker-end="url(#arrow)" filter="url(#rough-line)"/><rect x="752" y="154" width="116" height="23" rx="3" fill="#ffffff"/><text x="810" y="171" text-anchor="middle" class="edge-label" fill="#495057">every request</text></g>
<g><path d="M 1075 170 Q 1095.5 166 1110 170" fill="none" stroke="#1e1e1e" stroke-width="2.2" marker-end="url(#arrow)" filter="url(#rough-line)"/></g>
<g><path d="M 1285 250 Q 1288 281 1285 320" fill="none" stroke="#1e1e1e" stroke-width="2.2" marker-end="url(#arrow)" filter="url(#rough-line)"/><rect x="1227" y="269" width="116" height="23" rx="3" fill="#ffffff"/><text x="1285" y="286" text-anchor="middle" class="edge-label" fill="#495057">firebase deploy</text></g>
<g><path d="M 675 250 Q 440.5 281 200 320" fill="none" stroke="#1e1e1e" stroke-width="2.2" marker-end="url(#arrow)" filter="url(#rough-line)"/><rect x="379.5" y="269" width="116" height="23" rx="3" fill="#ffffff"/><text x="437.5" y="286" text-anchor="middle" class="edge-label" fill="#495057">generate</text></g>
<g><path d="M 710 250 Q 558 281 400 320" fill="none" stroke="#1e1e1e" stroke-width="2.2" marker-end="url(#arrow)" filter="url(#rough-line)"/><rect x="497" y="269" width="116" height="23" rx="3" fill="#ffffff"/><text x="555" y="286" text-anchor="middle" class="edge-label" fill="#495057">save/restore</text></g>
<g><path d="M 900 250 Q 803 281 700 320" fill="none" stroke="#1e1e1e" stroke-width="2.2" marker-end="url(#arrow)" filter="url(#rough-line)"/><rect x="742" y="269" width="116" height="23" rx="3" fill="#ffffff"/><text x="800" y="286" text-anchor="middle" class="edge-label" fill="#495057">oauth/proxy</text></g>
<g><path d="M 155 480 Q 295.5 521 430 570" fill="none" stroke="#0b7285" stroke-width="2.2" marker-end="url(#arrow)" filter="url(#rough-line)"/><rect x="234.5" y="509" width="116" height="23" rx="3" fill="#ffffff"/><text x="292.5" y="526" text-anchor="middle" class="edge-label" fill="#0b7285">generate/grade</text></g>
<g><path d="M 900 480 Q 943 521 980 570" fill="none" stroke="#0b7285" stroke-width="2.2" marker-end="url(#arrow)" filter="url(#rough-line)"/><rect x="882" y="509" width="116" height="23" rx="3" fill="#ffffff"/><text x="940" y="526" text-anchor="middle" class="edge-label" fill="#0b7285">OAuth/API/webhooks</text></g>
<g><path d="M 425 400 Q 705.5 396 980 400" fill="none" stroke="#1e1e1e" stroke-width="2.2" marker-end="url(#arrow)" filter="url(#rough-line)"/><rect x="644.5" y="384" width="116" height="23" rx="3" fill="#ffffff"/><text x="702.5" y="401" text-anchor="middle" class="edge-label" fill="#495057">read/write</text></g>
<g><path d="M 810 480 Q 913 436 1010 400" fill="none" stroke="#1e1e1e" stroke-width="2.2" marker-end="url(#arrow)" filter="url(#rough-line)"/><rect x="852" y="424" width="116" height="23" rx="3" fill="#ffffff"/><text x="910" y="441" text-anchor="middle" class="edge-label" fill="#495057">connections</text></g>
  <g><rect x="40" y="100" width="220" height="150" rx="9" fill="#dbe4ff" stroke="#4263eb" stroke-width="2.2" filter="url(#rough)"/><text x="150" y="132" text-anchor="middle" class="node-title">Vue SPA (browser)</text><text x="150" y="161" text-anchor="middle" class="node-body">WorkspaceShell.vue</text>
<text x="150" y="180" text-anchor="middle" class="node-body">Firebase Auth SDK</text></g>
<g><rect x="300" y="100" width="220" height="150" rx="9" fill="#e5dbff" stroke="#7048e8" stroke-width="2.2" filter="url(#rough)"/><text x="410" y="132" text-anchor="middle" class="node-title">Firebase Hosting</text><text x="410" y="161" text-anchor="middle" class="node-body">Serves frontend/dist</text>
<text x="410" y="180" text-anchor="middle" class="node-body">Rewrites /api/v1/** and</text>
<text x="410" y="199" text-anchor="middle" class="node-body">named-function aliases</text></g>
<g><rect x="560" y="90" width="230" height="160" rx="9" fill="#e5dbff" stroke="#7048e8" stroke-width="2.2" filter="url(#rough)"/><text x="675" y="122" text-anchor="middle" class="node-title">apiV1 façade</text><text x="675" y="151" text-anchor="middle" class="node-body">Cloud Functions v2</text>
<text x="675" y="170" text-anchor="middle" class="node-body">onRequest handlers</text>
<text x="675" y="189" text-anchor="middle" class="node-body">region: us-central1</text></g>
<g><rect x="830" y="90" width="240" height="160" rx="9" fill="#fff3bf" stroke="#e67700" stroke-width="2.2" filter="url(#rough)"/><text x="950" y="122" text-anchor="middle" class="node-title">Shared guardrails</text><text x="950" y="151" text-anchor="middle" class="node-body">Firebase ID token</text>
<text x="950" y="170" text-anchor="middle" class="node-body">CORS allowlist (APP_ORIGINS)</text>
<text x="950" y="189" text-anchor="middle" class="node-body">owner + schema checks</text>
<text x="950" y="208" text-anchor="middle" class="node-body">rate limits</text></g>
<g><rect x="1110" y="90" width="350" height="160" rx="9" fill="#f1f3f5" stroke="#495057" stroke-width="2.2" filter="url(#rough)"/><text x="1285" y="122" text-anchor="middle" class="node-title">GitHub Actions CI/CD</text><text x="1285" y="151" text-anchor="middle" class="node-body">Build + test on every PR</text>
<text x="1285" y="170" text-anchor="middle" class="node-body">Workload Identity Fed deploy</text>
<text x="1285" y="189" text-anchor="middle" class="node-body">on push to main</text>
<text x="1285" y="208" text-anchor="middle" class="node-body">post-deploy /api/healthz check</text></g>
<g><rect x="40" y="320" width="230" height="160" rx="9" fill="#e5dbff" stroke="#7048e8" stroke-width="2.2" filter="url(#rough)"/><text x="155" y="352" text-anchor="middle" class="node-title">Generation functions</text><text x="155" y="381" text-anchor="middle" class="node-body">generateApp (SSE)</text>
<text x="155" y="400" text-anchor="middle" class="node-body">cancelGeneration</text>
<text x="155" y="419" text-anchor="middle" class="node-body">projectVariationSet · selectVariation</text></g>
<g><rect x="310" y="320" width="230" height="160" rx="9" fill="#e5dbff" stroke="#7048e8" stroke-width="2.2" filter="url(#rough)"/><text x="425" y="352" text-anchor="middle" class="node-title">Project state functions</text><text x="425" y="381" text-anchor="middle" class="node-body">saveFiles</text>
<text x="425" y="400" text-anchor="middle" class="node-body">projectSnapshots · restoreSnapshot</text>
<text x="425" y="419" text-anchor="middle" class="node-body">projectState</text></g>
<g><rect x="580" y="320" width="260" height="160" rx="9" fill="#e5dbff" stroke="#7048e8" stroke-width="2.2" filter="url(#rough)"/><text x="710" y="352" text-anchor="middle" class="node-title">Integration functions</text><text x="710" y="381" text-anchor="middle" class="node-body">hlOAuthStart · hlAuthCallback</text>
<text x="710" y="400" text-anchor="middle" class="node-body">hlConnectionStatus</text>
<text x="710" y="419" text-anchor="middle" class="node-body">hlProxy · hlWebhook</text></g>
<g><rect x="880" y="320" width="260" height="160" rx="9" fill="#d3f9d8" stroke="#2b8a3e" stroke-width="2.2" filter="url(#rough)"/><text x="1010" y="352" text-anchor="middle" class="node-title">Firestore</text><text x="1010" y="381" text-anchor="middle" class="node-body">projects · files · messages</text>
<text x="1010" y="400" text-anchor="middle" class="node-body">snapshots · variationSets</text>
<text x="1010" y="419" text-anchor="middle" class="node-body">connections · rate limits</text></g>
<g><rect x="1180" y="320" width="280" height="160" rx="9" fill="#d3f9d8" stroke="#2b8a3e" stroke-width="2.2" filter="url(#rough)"/><text x="1320" y="352" text-anchor="middle" class="node-title">Runtime configuration</text><text x="1320" y="381" text-anchor="middle" class="node-body">defineString params (models,</text>
<text x="1320" y="400" text-anchor="middle" class="node-body">HL client), Secret Manager:</text>
<text x="1320" y="419" text-anchor="middle" class="node-body">OPENAI_API_KEY, HL_CLIENT_SECRET</text></g>
<g><rect x="300" y="570" width="260" height="130" rx="9" fill="#c5f6fa" stroke="#0b7285" stroke-width="2.2" filter="url(#rough)"/><text x="430" y="602" text-anchor="middle" class="node-title">OpenAI</text><text x="430" y="631" text-anchor="middle" class="node-body">gpt-5.4 generation model</text>
<text x="430" y="650" text-anchor="middle" class="node-body">variation planner + grader models</text></g>
<g><rect x="880" y="570" width="260" height="130" rx="9" fill="#c5f6fa" stroke="#0b7285" stroke-width="2.2" filter="url(#rough)"/><text x="1010" y="602" text-anchor="middle" class="node-title">HighLevel CRM</text><text x="1010" y="631" text-anchor="middle" class="node-body">OAuth 2.0 · REST API</text>
<text x="1010" y="650" text-anchor="middle" class="node-body">Ed25519-signed webhooks</text></g>
</svg>
